<svg id="Layer_1" data-name="Layer 1" xmlns="http://www.w3.org/2000/svg" viewBox="0 0 103.61 74.92"><defs><style>.cls-1{fill:#ff9e1d;}.cls-2{fill:#ddd;}</style></defs><title>csapat-glider-lines-horizontal</title><g id="Réteg_2" data-name="Réteg 2"><g id="Réteg_1" data-name="Réteg 1"><polygon class="cls-1" points="49.07 43.56 21.21 15.48 44.66 37.84 32.46 16.2 49.07 43.56"/><polygon class="cls-1" points="55.02 43.56 82.4 14.83 59.43 37.84 71.64 16.2 55.02 43.56"/><path class="cls-2" d="M58.44,16.58a25,25,0,0,0,5.37-2.12c4.55-2.07,10.74-5,18.43-5A53.38,53.38,0,0,0,64.4,4.66c-6.66,2.28-12.08,5.63-14.46,8.45-0.87,1-1.3,2-1,2.44C49.06,15.75,50.23,17.47,58.44,16.58Z" transform="translate(-27.43 -2)"/><path class="cls-1" d="M93.49,13.27c2.4,1.73,4.3,3,5.85,3.33,8.06,0.86,9.41-.94,9.61-1.3,0.34-.65-0.14-1.82-1.3-3.12-5-5.69-20.93-12.7-37.26-9.27A54.43,54.43,0,0,1,93.49,13.27Z" transform="translate(-27.43 -2)"/><path class="cls-1" d="M41.44,51.43v5.21A9.31,9.31,0,0,0,39,54.4a4.69,4.69,0,0,0-2.47-.63,4.86,4.86,0,0,0-3.68,1.55,5.46,5.46,0,0,0-1.46,3.89,5.56,5.56,0,0,0,1.42,3.9,4.76,4.76,0,0,0,3.64,1.53A5,5,0,0,0,39,64a9.85,9.85,0,0,0,2.45-2.3v5.18a10.34,10.34,0,0,1-4.77,1.24,9.12,9.12,0,0,1-6.59-2.55,8.48,8.48,0,0,1-2.65-6.36,8.63,8.63,0,0,1,2.68-6.42,9.1,9.1,0,0,1,6.59-2.61A9.82,9.82,0,0,1,41.44,51.43Z" transform="translate(-27.43 -2)"/><path class="cls-1" d="M55.11,53.59l-3.24,1.73A2.25,2.25,0,0,0,50,53.75a1.32,1.32,0,0,0-.93.36,1.21,1.21,0,0,0-.38.91c0,0.65.76,1.3,2.27,1.94a13.52,13.52,0,0,1,4.2,2.47,4.26,4.26,0,0,1,1.08,3.05,5.37,5.37,0,0,1-1.82,4.12A6.5,6.5,0,0,1,44.09,64l3.35-1.55A7.33,7.33,0,0,0,48.5,64a2.45,2.45,0,0,0,1.71.66c1.33,0,2-.6,2-1.81a2.47,2.47,0,0,0-1.54-2l-1.18-.58-1.2-.57a7.44,7.44,0,0,1-2.42-1.64A4.11,4.11,0,0,1,45,55.38a4.84,4.84,0,0,1,1.52-3.66,5.29,5.29,0,0,1,3.76-1.45C52.44,50.23,54.05,51.35,55.11,53.59Z" transform="translate(-27.43 -2)"/><path class="cls-2" d="M72.24,50.7h3.94v17H72.24V65.9a7.52,7.52,0,0,1-10.63.1l-0.37-.38a9.46,9.46,0,0,1-2.31-6.51,9.15,9.15,0,0,1,2.28-6.36,7.36,7.36,0,0,1,5.72-2.55,7.19,7.19,0,0,1,5.31,2.44V50.7Zm-9.3,8.41a5.91,5.91,0,0,0,1.3,4,4.29,4.29,0,0,0,3.39,1.55,4.51,4.51,0,0,0,3.52-1.5,6.45,6.45,0,0,0,0-7.87,4.43,4.43,0,0,0-3.49-1.52,4.32,4.32,0,0,0-3.38,1.53A5.66,5.66,0,0,0,62.94,59.11Z" transform="translate(-27.43 -2)"/><path class="cls-2" d="M85.06,76.92H81.13V50.7h3.93v1.85a7.23,7.23,0,0,1,5.26-2.32,7.33,7.33,0,0,1,5.77,2.58,9.33,9.33,0,0,1,2.3,6.47,9.19,9.19,0,0,1-2.28,6.36,7.43,7.43,0,0,1-11.05.14V76.92Zm9.32-17.63a5.87,5.87,0,0,0-1.32-4,4.3,4.3,0,0,0-3.38-1.55,4.49,4.49,0,0,0-3.51,1.5,5.7,5.7,0,0,0-1.34,3.94,5.84,5.84,0,0,0,1.34,3.93,4.42,4.42,0,0,0,3.49,1.51A4.24,4.24,0,0,0,93,63.11,5.55,5.55,0,0,0,94.38,59.29Z" transform="translate(-27.43 -2)"/><path class="cls-2" d="M115.06,50.7H119v17h-3.93V65.9a7.53,7.53,0,0,1-10.65.09l-0.35-.37a9.46,9.46,0,0,1-2.32-6.51A9.15,9.15,0,0,1,104,52.75a7.36,7.36,0,0,1,5.72-2.55,7.23,7.23,0,0,1,5.32,2.44V50.7Zm-9.31,8.41a5.91,5.91,0,0,0,1.3,4,4.29,4.29,0,0,0,3.39,1.55,4.51,4.51,0,0,0,3.52-1.5,6.45,6.45,0,0,0,0-7.87,4.43,4.43,0,0,0-3.49-1.52,4.34,4.34,0,0,0-3.38,1.53A5.66,5.66,0,0,0,105.75,59.11Z" transform="translate(-27.43 -2)"/><path class="cls-2" d="M128,54.36V67.68h-3.92V54.36h-1.68V50.7h1.68V44.48H128V50.7H131v3.66H128Z" transform="translate(-27.43 -2)"/></g></g></svg>